<?xml version="1.0" encoding="UTF-8" standalone="no"?>
<!-- Created with Inkscape (http://www.inkscape.org/) -->

<svg
   width="150"
   height="150"
   viewBox="0 0 39.687499 39.6875"
   version="1.1"
   id="svg1"
   xml:space="preserve"
   inkscape:version="1.4.2 (f4327f4, 2025-05-13)"
   sodipodi:docname="ctn-logo-2.svg"
   xmlns:inkscape="http://www.inkscape.org/namespaces/inkscape"
   xmlns:sodipodi="http://sodipodi.sourceforge.net/DTD/sodipodi-0.dtd"
   xmlns:xlink="http://www.w3.org/1999/xlink"
   xmlns="http://www.w3.org/2000/svg"
   xmlns:svg="http://www.w3.org/2000/svg"><sodipodi:namedview
     id="namedview1"
     pagecolor="#ffffff"
     bordercolor="#000000"
     borderopacity="0.25"
     inkscape:showpageshadow="2"
     inkscape:pageopacity="0.0"
     inkscape:pagecheckerboard="0"
     inkscape:deskcolor="#d1d1d1"
     inkscape:document-units="px"
     showguides="true"
     inkscape:zoom="4.0595904"
     inkscape:cx="66.262843"
     inkscape:cy="77.470871"
     inkscape:window-width="1920"
     inkscape:window-height="1046"
     inkscape:window-x="-11"
     inkscape:window-y="-11"
     inkscape:window-maximized="1"
     inkscape:current-layer="layer2" /><defs
     id="defs1"><inkscape:path-effect
       effect="fillet_chamfer"
       id="path-effect45"
       is_visible="true"
       lpeversion="1"
       nodesatellites_param="F,0,0,1,0,0,0,1 @ F,0,0,1,0,0,0,1 | F,0,0,1,0,0,0,1 @ F,0,0,1,0,0,0,1"
       radius="0"
       unit="px"
       method="auto"
       mode="F"
       chamfer_steps="1"
       flexible="false"
       use_knot_distance="true"
       apply_no_radius="true"
       apply_with_radius="true"
       only_selected="false"
       hide_knots="false" /><inkscape:path-effect
       effect="fillet_chamfer"
       id="path-effect44"
       is_visible="true"
       lpeversion="1"
       nodesatellites_param="F,0,0,1,0,0,0,1 @ F,0,0,1,0,0,0,1 @ F,0,0,1,0,0,0,1 | F,0,0,1,0,0,0,1 @ F,0,0,1,0,0,0,1 @ F,0,0,1,0,0,0,1"
       radius="0"
       unit="px"
       method="auto"
       mode="F"
       chamfer_steps="1"
       flexible="false"
       use_knot_distance="true"
       apply_no_radius="true"
       apply_with_radius="true"
       only_selected="false"
       hide_knots="false" /><inkscape:path-effect
       effect="mirror_symmetry"
       start_point="20.376128,19.036676"
       end_point="20.376128,35.757724"
       center_point="20.376128,27.3972"
       id="path-effect35"
       is_visible="true"
       lpeversion="1.2"
       lpesatellites=""
       mode="free"
       discard_orig_path="false"
       fuse_paths="false"
       oposite_fuse="false"
       split_items="false"
       split_open="false"
       link_styles="false" /><inkscape:path-effect
       effect="fillet_chamfer"
       id="path-effect33"
       is_visible="true"
       lpeversion="1"
       nodesatellites_param="F,0,0,1,0,0,0,1 @ F,0,0,1,0,0,0,1 @ F,0,0,1,0,0,0,1"
       radius="0"
       unit="px"
       method="auto"
       mode="F"
       chamfer_steps="1"
       flexible="false"
       use_knot_distance="true"
       apply_no_radius="true"
       apply_with_radius="true"
       only_selected="false"
       hide_knots="false" /><clipPath
       id="c4ada80243"><path
         d="M 56.691406 18 L 94.027344 18 L 94.027344 94.058594 L 56.691406 94.058594 Z M 56.691406 18 "
         id="path1" /></clipPath><clipPath
       id="25ce6f53a6"><path
         d="M 17.972656 18 L 55.273438 18 L 55.273438 94.058594 L 17.972656 94.058594 Z M 17.972656 18 "
         id="path2" /></clipPath><clipPath
       id="4d74a35ba4"><path
         d="M 54.703125 17.941406 L 56 17.941406 L 56 94.007812 L 54.703125 94.007812 Z M 54.703125 17.941406 "
         id="path3" /></clipPath><clipPath
       id="cd09111633"><path
         d="M 56 17.941406 L 57.296875 17.941406 L 57.296875 94.007812 L 56 94.007812 Z M 56 17.941406 "
         id="path4" /></clipPath><clipPath
       id="e0d2254967"><path
         d="M 55 44 L 72 44 L 72 95 L 55 95 Z M 55 44 "
         id="path5" /></clipPath><clipPath
       id="90bd7674fd"><path
         d="M 63.859375 95.683594 L 47.992188 93.136719 L 55.761719 44.738281 L 71.625 47.285156 Z M 63.859375 95.683594 "
         id="path6" /></clipPath><clipPath
       id="af52517d61"><path
         d="M 55.925781 94.410156 L 55.757812 44.742188 L 71.625 47.289062 Z M 55.925781 94.410156 "
         id="path7" /></clipPath><clipPath
       id="b22f7e7e54"><path
         d="M 45 55 L 57 55 L 57 60 L 45 60 Z M 45 55 "
         id="path8" /></clipPath><clipPath
       id="f4fd75d2bd"><path
         d="M 44.960938 57.597656 L 45.492188 53.746094 L 56.75 55.300781 L 56.21875 59.152344 Z M 44.960938 57.597656 "
         id="path9" /></clipPath><clipPath
       id="e76876f4a4"><path
         d="M 45.226562 55.671875 L 56.738281 55.296875 L 56.207031 59.152344 Z M 45.226562 55.671875 "
         id="path10" /></clipPath><clipPath
       id="72f6060aac"><path
         d="M 45 18 L 63 18 L 63 57 L 45 57 Z M 45 18 "
         id="path11" /></clipPath><clipPath
       id="c07f5b51f1"><path
         d="M 45.21875 55.699219 L 48.554688 18.667969 L 62.71875 19.945312 L 59.378906 56.976562 Z M 45.21875 55.699219 "
         id="path12" /></clipPath><clipPath
       id="764ed79cd8"><path
         d="M 60 44 L 72 44 L 72 49 L 60 49 Z M 60 44 "
         id="path13" /></clipPath><clipPath
       id="69d7a9c3b4"><path
         d="M 71.710938 45.492188 L 71.398438 49.359375 L 60.070312 48.441406 L 60.382812 44.574219 Z M 71.710938 45.492188 "
         id="path14" /></clipPath><clipPath
       id="be8bd2bd4c"><path
         d="M 71.554688 47.425781 L 60.078125 48.441406 L 60.394531 44.574219 Z M 71.554688 47.425781 "
         id="path15" /></clipPath><clipPath
       id="7d7f35b62f"><path
         d="M 58 18 L 64 18 L 64 46 L 58 46 Z M 58 18 "
         id="path16" /></clipPath><clipPath
       id="9beba124bf"><path
         d="M 58.984375 45.09375 L 62.097656 18.46875 L 63.789062 18.667969 L 60.675781 45.292969 Z M 58.984375 45.09375 "
         id="path17" /></clipPath><clipPath
       id="969d41a461"><path
         d="M 48.734375 17.867188 L 63.511719 17.867188 L 63.511719 19.164062 L 48.734375 19.164062 Z M 48.734375 17.867188 "
         id="path18" /></clipPath><clipPath
       id="567eaf98ee"><path
         d="M 48 18 L 64 18 L 64 24 L 48 24 Z M 48 18 "
         id="path19" /></clipPath><clipPath
       id="6a552f6b6d"><path
         d="M 48.652344 21.457031 L 49.195312 17.019531 L 63.792969 18.796875 L 63.253906 23.234375 Z M 48.652344 21.457031 "
         id="path20" /></clipPath><clipPath
       id="4ddbc2ba06"><path
         d="M 48.925781 19.238281 L 63.792969 18.796875 L 63.25 23.234375 Z M 48.925781 19.238281 "
         id="path21" /></clipPath><inkscape:path-effect
       effect="mirror_symmetry"
       start_point="20.376128,17.55727"
       end_point="20.376128,34.278318"
       center_point="20.376128,25.917794"
       id="path-effect35-2"
       is_visible="true"
       lpeversion="1.2"
       lpesatellites=""
       mode="free"
       discard_orig_path="false"
       fuse_paths="false"
       oposite_fuse="false"
       split_items="false"
       split_open="false"
       link_styles="false" /><inkscape:path-effect
       effect="mirror_symmetry"
       start_point="20.376128,19.036676"
       end_point="20.376128,35.757724"
       center_point="20.376128,27.3972"
       id="path-effect35-2-1"
       is_visible="true"
       lpeversion="1.2"
       lpesatellites=""
       mode="free"
       discard_orig_path="false"
       fuse_paths="false"
       oposite_fuse="false"
       split_items="false"
       split_open="false"
       link_styles="false" /><inkscape:path-effect
       effect="mirror_symmetry"
       start_point="20.376128,19.036676"
       end_point="20.376128,35.757724"
       center_point="20.376128,27.3972"
       id="path-effect35-2-1-2"
       is_visible="true"
       lpeversion="1.2"
       lpesatellites=""
       mode="free"
       discard_orig_path="false"
       fuse_paths="false"
       oposite_fuse="false"
       split_items="false"
       split_open="false"
       link_styles="false" /></defs><g
     inkscape:label="Layer 1"
     inkscape:groupmode="layer"
     id="layer1" /><g
     inkscape:groupmode="layer"
     id="layer2"
     inkscape:label="Layer 2"><g
       id="g2"
       transform="matrix(1.0491291,0,0,1.0491291,-0.97490564,-1.9498117)"><a
         id="a38"
         transform="matrix(1.0397568,0,0,1.0397568,-0.74864196,-0.31382623)"><rect
           style="fill:#000000;fill-opacity:1;fill-rule:nonzero;stroke:none;stroke-width:0.76248;stroke-dasharray:none;stroke-opacity:1"
           id="rect35-2"
           width="19.160734"
           height="1.7197917"
           x="10.726403"
           y="-20.703646"
           transform="rotate(90)"
           inkscape:transform-center-x="-2.2489583"
           inkscape:transform-center-y="-12.721849" /></a><text
         xml:space="preserve"
         style="font-style:normal;font-variant:normal;font-weight:bold;font-stretch:normal;font-size:1.46721px;font-family:Arial;-inkscape-font-specification:'Arial, Bold';font-variant-ligatures:normal;font-variant-caps:normal;font-variant-numeric:normal;font-variant-east-asian:normal;text-align:start;writing-mode:lr-tb;direction:ltr;text-anchor:start;fill:#000000;fill-opacity:1;fill-rule:nonzero;stroke:none;stroke-width:0.687755;stroke-dasharray:none;stroke-opacity:1"
         x="16.170149"
         y="34.073959"
         id="text38"><tspan
           sodipodi:role="line"
           id="tspan38"
           style="font-style:normal;font-variant:normal;font-weight:bold;font-stretch:normal;font-size:1.46721px;font-family:Arial;-inkscape-font-specification:'Arial, Bold';font-variant-ligatures:normal;font-variant-caps:normal;font-variant-numeric:normal;font-variant-east-asian:normal;stroke-width:0.687755"
           x="16.170149"
           y="34.073959">ASUNCIÓN</tspan></text><g
         id="g51"
         transform="matrix(1.0397568,0,0,1.0397568,-0.73943816,-1.0433014)"><g
           id="g50"
           transform="translate(43.442142,-2.8957402)"><rect
             style="fill:#989898;fill-opacity:1;fill-rule:nonzero;stroke:none;stroke-width:0.257527;stroke-dasharray:none;stroke-opacity:1"
             id="rect48"
             width="0.65069538"
             height="15.026787"
             x="-36.898701"
             y="18.128084"
             transform="matrix(1,0,0.39245971,0.9197692,0,0)" /><path
             style="fill:none;fill-opacity:1;fill-rule:nonzero;stroke:#989898;stroke-width:0.396875;stroke-dasharray:none;stroke-opacity:1"
             d="m -23.748533,30.282824 c 0,0 -1.169304,0.0752 -1.169304,1.064067 0,0.98887 1.169304,1.064066 1.169304,1.064066 m -0.375554,-1.064066 m 0.79375,-0.264583"
             id="path49"
             sodipodi:nodetypes="czc" /></g><g
           id="g49"
           transform="translate(44.863708,-8.180995)"><rect
             style="fill:#989898;fill-opacity:1;fill-rule:nonzero;stroke:none;stroke-width:0.257527;stroke-dasharray:none;stroke-opacity:1"
             id="rect48-7"
             width="0.65069538"
             height="15.026787"
             x="9.4815254"
             y="23.876007"
             transform="matrix(-1,0,-0.39245971,0.9197692,0,0)" /><path
             style="fill:none;fill-opacity:1;fill-rule:nonzero;stroke:#989898;stroke-width:0.396875;stroke-dasharray:none;stroke-opacity:1"
             d="m -24.887522,35.569586 c 0,0 1.169304,0.0752 1.169304,1.064067 0,0.98887 -1.169304,1.064066 -1.169304,1.064066 m 0.375554,-1.064066 m -0.79375,-0.264583"
             id="path49-42"
             sodipodi:nodetypes="czc" /></g></g><g
         id="0e32c9c8bf"
         transform="matrix(0.12318168,0,0,0.12318168,12.986098,12.947859)"><path
           style="fill:#eda906;fill-opacity:1;fill-rule:nonzero;stroke:none"
           d="m 111.57031,62.953125 c 0.27735,-2.277344 0.42578,-4.597656 0.42578,-6.953125 0,-2.359375 -0.14843,-4.675781 -0.42578,-6.953125 l -8.37109,-2.46875 c -0.73438,-3.753906 -1.91016,-7.339844 -3.468751,-10.71875 l 5.312501,-6.894531 c -2.25781,-4.089844 -5.01563,-7.875 -8.195314,-11.25 L 88.648438,20.625 h -0.01172 C 85.882811,18.082031 82.83203,15.851562 79.542968,14.007812 L 79.78125,5.300781 C 75.621094,3.339844 71.183594,1.882812 66.546875,1.003906 L 61.625,8.183594 C 59.78125,7.964844 57.898438,7.855469 56,7.855469 c -1.914062,0 -3.785156,0.109375 -5.636719,0.328125 L 45.4375,1.003906 C 40.800781,1.882812 36.363281,3.339844 32.203125,5.300781 l 0.238281,8.707031 c -3.289062,1.84375 -6.339844,4.070313 -9.09375,6.617188 h -0.0078 l -8.195313,-2.910156 c -3.179687,3.375 -5.933593,7.160156 -8.199219,11.25 l 5.308594,6.894531 c -1.554687,3.378906 -2.734375,6.964844 -3.46875,10.71875 l -8.359375,2.46875 C 0.148438,51.324219 0,53.640625 0,56 c 0,2.359375 0.148438,4.675781 0.425781,6.953125 l 8.359375,2.46875 c 0.734375,3.753906 1.914063,7.339844 3.46875,10.714844 L 6.945312,83.03125 c 2.265626,4.09375 5.019532,7.875 8.199219,11.253906 L 23.347656,91.375 c 2.753906,2.542969 5.804688,4.761719 9.09375,6.605469 l -0.238281,8.718751 c 4.160156,1.96094 8.597656,3.41797 13.234375,4.29687 l 4.933594,-7.1914 c 1.84375,0.21875 3.726562,0.32812 5.625,0.32812 1.902344,0 3.785156,-0.10937 5.628906,-0.32812 l 4.921875,7.1914 c 4.636719,-0.8789 9.074219,-2.33593 13.234375,-4.29687 l -0.238281,-8.707032 c 3.289062,-1.851563 6.339843,-4.074219 9.09375,-6.617188 l 8.210937,2.910156 c 3.179684,-3.375 5.937504,-7.160156 8.195314,-11.25 l -5.312501,-6.894531 c 1.558591,-3.378906 2.734371,-6.964844 3.468751,-10.71875 z M 56.007812,89.15625 c -18.316406,0 -33.164062,-14.851562 -33.164062,-33.167969 0,-18.292969 14.847656,-33.144531 33.164062,-33.144531 18.296876,0 33.144532,14.851562 33.144532,33.144531 0,18.316407 -14.847656,33.167969 -33.144532,33.167969 z m 0,0"
           id="path22" /><g
           clip-rule="nonzero"
           clip-path="url(#c4ada80243)"
           id="g23"><path
             style="fill:#000076;fill-opacity:1;fill-rule:nonzero;stroke:none"
             d="m 56.691406,18.015625 c 20.679688,0.359375 37.324219,17.238281 37.324219,38.019531 0,20.761719 -16.644531,37.636719 -37.324219,37.996094 z m 0,0"
             id="path23" /></g><g
           clip-rule="nonzero"
           clip-path="url(#25ce6f53a6)"
           id="g24"><path
             style="fill:#e20002;fill-opacity:1;fill-rule:nonzero;stroke:none"
             d="M 55.308594,18.015625 C 34.628906,18.375 17.988281,35.253906 17.988281,56.035156 c 0,20.761719 16.640625,37.636719 37.320313,37.996094 z m 0,0"
             id="path24" /></g><g
           clip-rule="nonzero"
           clip-path="url(#4d74a35ba4)"
           id="g25"><path
             style="fill:#e20002;fill-opacity:1;fill-rule:nonzero;stroke:none"
             d="M 54.703125,17.941406 H 56 v 76.066406 h -1.296875 z m 0,0"
             id="path25" /></g><g
           clip-rule="nonzero"
           clip-path="url(#cd09111633)"
           id="g26"><path
             style="fill:#000076;fill-opacity:1;fill-rule:nonzero;stroke:none"
             d="m 56,17.941406 h 1.296875 V 94.007812 H 56 Z m 0,0"
             id="path26" /></g><g
           clip-rule="nonzero"
           clip-path="url(#e0d2254967)"
           id="g29"><g
             clip-rule="nonzero"
             clip-path="url(#90bd7674fd)"
             id="g28"><g
               clip-rule="nonzero"
               clip-path="url(#af52517d61)"
               id="g27"><path
                 style="fill:#ffffff;fill-opacity:1;fill-rule:nonzero;stroke:none"
                 d="m 63.859375,95.683594 -15.867187,-2.546875 7.777343,-48.460938 15.863281,2.546875 z m 0,0"
                 id="path27" /></g></g></g><g
           clip-rule="nonzero"
           clip-path="url(#b22f7e7e54)"
           id="g32"><g
             clip-rule="nonzero"
             clip-path="url(#f4fd75d2bd)"
             id="g31"><g
               clip-rule="nonzero"
               clip-path="url(#e76876f4a4)"
               id="g30"><path
                 style="fill:#ffffff;fill-opacity:1;fill-rule:nonzero;stroke:none"
                 d="m 44.960938,57.597656 0.53125,-3.851562 11.273437,1.554687 -0.53125,3.851563 z m 0,0"
                 id="path29" /></g></g></g><g
           clip-rule="nonzero"
           clip-path="url(#72f6060aac)"
           id="g34"><g
             clip-rule="nonzero"
             clip-path="url(#c07f5b51f1)"
             id="g33"><path
               style="fill:#ffffff;fill-opacity:1;fill-rule:nonzero;stroke:none"
               d="m 45.21875,55.699219 3.335938,-37.007813 14.160156,1.273438 -3.335938,37.011718 z m 0,0"
               id="path32" /></g></g><g
           clip-rule="nonzero"
           clip-path="url(#764ed79cd8)"
           id="g37"><g
             clip-rule="nonzero"
             clip-path="url(#69d7a9c3b4)"
             id="g36"><g
               clip-rule="nonzero"
               clip-path="url(#be8bd2bd4c)"
               id="g35"><path
                 style="fill:#ffffff;fill-opacity:1;fill-rule:nonzero;stroke:none"
                 d="m 71.710938,45.492188 -0.3125,3.867187 -11.34375,-0.921875 0.3125,-3.863281 z m 0,0"
                 id="path34" /></g></g></g><g
           clip-rule="nonzero"
           clip-path="url(#7d7f35b62f)"
           id="g39"><g
             clip-rule="nonzero"
             clip-path="url(#9beba124bf)"
             id="g38"><path
               style="fill:#ffffff;fill-opacity:1;fill-rule:nonzero;stroke:none"
               d="m 58.984375,45.09375 3.113281,-26.621094 1.691406,0.195313 -3.113281,26.625 z m 0,0"
               id="path37" /></g></g><g
           clip-rule="nonzero"
           clip-path="url(#969d41a461)"
           id="g40"><path
             style="fill:#ffffff;fill-opacity:1;fill-rule:nonzero;stroke:none"
             d="M 18.039062,55.152344 C 18.398438,34.519531 35.242188,17.90625 55.984375,17.90625 c 20.722656,0 37.566406,16.613281 37.921875,37.246094 z m 0,0"
             id="path39" /></g><g
           clip-rule="nonzero"
           clip-path="url(#567eaf98ee)"
           id="g43"><g
             clip-rule="nonzero"
             clip-path="url(#6a552f6b6d)"
             id="g42"><g
               clip-rule="nonzero"
               clip-path="url(#4ddbc2ba06)"
               id="g41"><path
                 style="fill:#ffffff;fill-opacity:1;fill-rule:nonzero;stroke:none"
                 d="m 48.652344,21.457031 0.542968,-4.4375 14.597657,1.777344 -0.539063,4.4375 z m 0,0"
                 id="path40" /></g></g></g></g><path
         style="fill:none;fill-opacity:1;fill-rule:nonzero;stroke:#0000ff;stroke-width:0.673938;stroke-dasharray:none;stroke-opacity:1"
         d="m 8.8299573,20.471203 c 2e-7,0.960878 -0.087655,6.236398 3.2138757,11.380643 3.301531,5.144245 8.355681,4.879898 8.355681,4.879898 M 31.922299,20.471203 c 0,0.960878 0.08766,6.236398 -3.213876,11.380643 -3.301531,5.144245 -8.355681,4.879898 -8.355681,4.879898"
         id="path35-5"
         sodipodi:nodetypes="czc"
         inkscape:path-effect="#path-effect35-2"
         inkscape:original-d="m 8.8299573,20.471203 c 2e-7,0.960878 -0.087655,6.236398 3.2138757,11.380643 3.301531,5.144245 8.355681,4.879898 8.355681,4.879898"
         transform="matrix(1.0727358,0,0,1.0825831,-1.9741703,-0.44389512)" /><path
         style="fill:none;fill-opacity:1;fill-rule:nonzero;stroke:#ff0000;stroke-width:0.808173;stroke-dasharray:none;stroke-opacity:1"
         d="m 8.6502316,19.57383 c 0,0.221588 0.024191,7.027259 3.3936014,12.278016 3.36941,5.250757 8.355681,5.042883 8.355681,5.042883 M 32.102024,19.57383 c 0,0.221588 -0.02419,7.027259 -3.393601,12.278016 -3.36941,5.250757 -8.355681,5.042883 -8.355681,5.042883"
         id="path35-5-2"
         sodipodi:nodetypes="czc"
         inkscape:path-effect="#path-effect35-2-1"
         inkscape:original-d="m 8.6502316,19.57383 c 0,0.221588 0.024191,7.027259 3.3936014,12.278016 3.36941,5.250757 8.355681,5.042883 8.355681,5.042883"
         transform="matrix(0.92497999,0,0,0.93112695,1.0365208,3.4963239)" /><rect
         style="fill:#000000;fill-opacity:1;fill-rule:nonzero;stroke:none;stroke-width:0.59956;stroke-dasharray:none;stroke-opacity:1"
         id="rect35"
         width="11.394331"
         height="1.7881651"
         x="14.186866"
         y="9.2300053" /><text
         xml:space="preserve"
         style="font-style:normal;font-variant:normal;font-weight:bold;font-stretch:normal;font-size:2.56762px;font-family:Arial;-inkscape-font-specification:'Arial, Bold';font-variant-ligatures:normal;font-variant-caps:normal;font-variant-numeric:normal;font-variant-east-asian:normal;text-align:start;writing-mode:lr-tb;direction:ltr;text-anchor:start;fill:#000000;fill-opacity:1;fill-rule:nonzero;stroke:none;stroke-width:0.687755;stroke-dasharray:none;stroke-opacity:1"
         id="text39"
         transform="translate(-0.09397099,2.158539)"><textPath
           xlink:href="#path46"
           id="textPath46"
           style="stroke-width:0.687755"><tspan
             id="tspan39"
             style="font-style:normal;font-variant:normal;font-weight:bold;font-stretch:normal;font-size:2.56762px;font-family:Arial;-inkscape-font-specification:'Arial, Bold';font-variant-ligatures:normal;font-variant-caps:normal;font-variant-numeric:normal;font-variant-east-asian:normal;stroke-width:0.687755">COLEGIO TÉCNICO NACIONAL</tspan></textPath></text><path
         style="fill:none;fill-opacity:1;fill-rule:nonzero;stroke:none;stroke-width:0.645115;stroke-dasharray:none;stroke-opacity:1"
         d="m 8.9788997,15.85743 c 0,0 1.9158283,-13.9989249 11.1854823,-13.9989249 9.269654,0 10.645423,13.5259299 10.645423,13.5259299"
         id="path46"
         sodipodi:nodetypes="czc" /><text
         xml:space="preserve"
         style="font-style:normal;font-variant:normal;font-weight:bold;font-stretch:normal;font-size:1.46721px;font-family:Arial;-inkscape-font-specification:'Arial, Bold';font-variant-ligatures:normal;font-variant-caps:normal;font-variant-numeric:normal;font-variant-east-asian:normal;text-align:start;writing-mode:lr-tb;direction:ltr;text-anchor:start;fill:#ffffff;fill-opacity:1;fill-rule:nonzero;stroke:none;stroke-width:0.687755;stroke-dasharray:none;stroke-opacity:1"
         x="18.400343"
         y="10.602149"
         id="text38-4"><tspan
           sodipodi:role="line"
           id="tspan46"
           x="18.400343"
           y="10.602149"
           style="stroke-width:0.687755">CTN</tspan></text></g></g></svg>
