<svg xmlns="http://www.w3.org/2000/svg" xmlns:xlink="http://www.w3.org/1999/xlink" width="150" zoomAndPan="magnify" viewBox="0 0 112.5 112.499997" height="150" preserveAspectRatio="xMidYMid meet" version="1.2"><defs><clipPath id="c4ada80243"><path d="M 56.691406 18 L 94.027344 18 L 94.027344 94.058594 L 56.691406 94.058594 Z M 56.691406 18 "/></clipPath><clipPath id="25ce6f53a6"><path d="M 17.972656 18 L 55.273438 18 L 55.273438 94.058594 L 17.972656 94.058594 Z M 17.972656 18 "/></clipPath><clipPath id="4d74a35ba4"><path d="M 54.703125 17.941406 L 56 17.941406 L 56 94.007812 L 54.703125 94.007812 Z M 54.703125 17.941406 "/></clipPath><clipPath id="cd09111633"><path d="M 56 17.941406 L 57.296875 17.941406 L 57.296875 94.007812 L 56 94.007812 Z M 56 17.941406 "/></clipPath><clipPath id="e0d2254967"><path d="M 55 44 L 72 44 L 72 95 L 55 95 Z M 55 44 "/></clipPath><clipPath id="90bd7674fd"><path d="M 63.859375 95.683594 L 47.992188 93.136719 L 55.761719 44.738281 L 71.625 47.285156 Z M 63.859375 95.683594 "/></clipPath><clipPath id="af52517d61"><path d="M 55.925781 94.410156 L 55.757812 44.742188 L 71.625 47.289062 Z M 55.925781 94.410156 "/></clipPath><clipPath id="b22f7e7e54"><path d="M 45 55 L 57 55 L 57 60 L 45 60 Z M 45 55 "/></clipPath><clipPath id="f4fd75d2bd"><path d="M 44.960938 57.597656 L 45.492188 53.746094 L 56.75 55.300781 L 56.21875 59.152344 Z M 44.960938 57.597656 "/></clipPath><clipPath id="e76876f4a4"><path d="M 45.226562 55.671875 L 56.738281 55.296875 L 56.207031 59.152344 Z M 45.226562 55.671875 "/></clipPath><clipPath id="72f6060aac"><path d="M 45 18 L 63 18 L 63 57 L 45 57 Z M 45 18 "/></clipPath><clipPath id="c07f5b51f1"><path d="M 45.21875 55.699219 L 48.554688 18.667969 L 62.71875 19.945312 L 59.378906 56.976562 Z M 45.21875 55.699219 "/></clipPath><clipPath id="764ed79cd8"><path d="M 60 44 L 72 44 L 72 49 L 60 49 Z M 60 44 "/></clipPath><clipPath id="69d7a9c3b4"><path d="M 71.710938 45.492188 L 71.398438 49.359375 L 60.070312 48.441406 L 60.382812 44.574219 Z M 71.710938 45.492188 "/></clipPath><clipPath id="be8bd2bd4c"><path d="M 71.554688 47.425781 L 60.078125 48.441406 L 60.394531 44.574219 Z M 71.554688 47.425781 "/></clipPath><clipPath id="7d7f35b62f"><path d="M 58 18 L 64 18 L 64 46 L 58 46 Z M 58 18 "/></clipPath><clipPath id="9beba124bf"><path d="M 58.984375 45.09375 L 62.097656 18.46875 L 63.789062 18.667969 L 60.675781 45.292969 Z M 58.984375 45.09375 "/></clipPath><clipPath id="969d41a461"><path d="M 48.734375 17.867188 L 63.511719 17.867188 L 63.511719 19.164062 L 48.734375 19.164062 Z M 48.734375 17.867188 "/></clipPath><clipPath id="567eaf98ee"><path d="M 48 18 L 64 18 L 64 24 L 48 24 Z M 48 18 "/></clipPath><clipPath id="6a552f6b6d"><path d="M 48.652344 21.457031 L 49.195312 17.019531 L 63.792969 18.796875 L 63.253906 23.234375 Z M 48.652344 21.457031 "/></clipPath><clipPath id="4ddbc2ba06"><path d="M 48.925781 19.238281 L 63.792969 18.796875 L 63.25 23.234375 Z M 48.925781 19.238281 "/></clipPath></defs><g id="0e32c9c8bf"><path style=" stroke:none;fill-rule:nonzero;fill:#eda906;fill-opacity:1;" d="M 111.570312 62.953125 C 111.847656 60.675781 111.996094 58.355469 111.996094 56 C 111.996094 53.640625 111.847656 51.324219 111.570312 49.046875 L 103.199219 46.578125 C 102.464844 42.824219 101.289062 39.238281 99.730469 35.859375 L 105.042969 28.964844 C 102.785156 24.875 100.027344 21.089844 96.847656 17.714844 L 88.648438 20.625 L 88.636719 20.625 C 85.882812 18.082031 82.832031 15.851562 79.542969 14.007812 L 79.78125 5.300781 C 75.621094 3.339844 71.183594 1.882812 66.546875 1.003906 L 61.625 8.183594 C 59.78125 7.964844 57.898438 7.855469 56 7.855469 C 54.085938 7.855469 52.214844 7.964844 50.363281 8.183594 L 45.4375 1.003906 C 40.800781 1.882812 36.363281 3.339844 32.203125 5.300781 L 32.441406 14.007812 C 29.152344 15.851562 26.101562 18.078125 23.347656 20.625 L 23.339844 20.625 L 15.144531 17.714844 C 11.964844 21.089844 9.210938 24.875 6.945312 28.964844 L 12.253906 35.859375 C 10.699219 39.238281 9.519531 42.824219 8.785156 46.578125 L 0.425781 49.046875 C 0.148438 51.324219 0 53.640625 0 56 C 0 58.359375 0.148438 60.675781 0.425781 62.953125 L 8.785156 65.421875 C 9.519531 69.175781 10.699219 72.761719 12.253906 76.136719 L 6.945312 83.03125 C 9.210938 87.125 11.964844 90.90625 15.144531 94.285156 L 23.347656 91.375 C 26.101562 93.917969 29.152344 96.136719 32.441406 97.980469 L 32.203125 106.699219 C 36.363281 108.660156 40.800781 110.117188 45.4375 110.996094 L 50.371094 103.804688 C 52.214844 104.023438 54.097656 104.132812 55.996094 104.132812 C 57.898438 104.132812 59.78125 104.023438 61.625 103.804688 L 66.546875 110.996094 C 71.183594 110.117188 75.621094 108.660156 79.78125 106.699219 L 79.542969 97.992188 C 82.832031 96.140625 85.882812 93.917969 88.636719 91.375 L 96.847656 94.285156 C 100.027344 90.910156 102.785156 87.125 105.042969 83.035156 L 99.730469 76.140625 C 101.289062 72.761719 102.464844 69.175781 103.199219 65.421875 Z M 56.007812 89.15625 C 37.691406 89.15625 22.84375 74.304688 22.84375 55.988281 C 22.84375 37.695312 37.691406 22.84375 56.007812 22.84375 C 74.304688 22.84375 89.152344 37.695312 89.152344 55.988281 C 89.152344 74.304688 74.304688 89.15625 56.007812 89.15625 Z M 56.007812 89.15625 "/><g clip-rule="nonzero" clip-path="url(#c4ada80243)"><path style=" stroke:none;fill-rule:nonzero;fill:#000076;fill-opacity:1;" d="M 56.691406 18.015625 C 77.371094 18.375 94.015625 35.253906 94.015625 56.035156 C 94.015625 76.796875 77.371094 93.671875 56.691406 94.03125 Z M 56.691406 18.015625 "/></g><g clip-rule="nonzero" clip-path="url(#25ce6f53a6)"><path style=" stroke:none;fill-rule:nonzero;fill:#e20002;fill-opacity:1;" d="M 55.308594 18.015625 C 34.628906 18.375 17.988281 35.253906 17.988281 56.035156 C 17.988281 76.796875 34.628906 93.671875 55.308594 94.03125 Z M 55.308594 18.015625 "/></g><g clip-rule="nonzero" clip-path="url(#4d74a35ba4)"><path style=" stroke:none;fill-rule:nonzero;fill:#e20002;fill-opacity:1;" d="M 54.703125 17.941406 L 56 17.941406 L 56 94.007812 L 54.703125 94.007812 Z M 54.703125 17.941406 "/></g><g clip-rule="nonzero" clip-path="url(#cd09111633)"><path style=" stroke:none;fill-rule:nonzero;fill:#000076;fill-opacity:1;" d="M 56 17.941406 L 57.296875 17.941406 L 57.296875 94.007812 L 56 94.007812 Z M 56 17.941406 "/></g><g clip-rule="nonzero" clip-path="url(#e0d2254967)"><g clip-rule="nonzero" clip-path="url(#90bd7674fd)"><g clip-rule="nonzero" clip-path="url(#af52517d61)"><path style=" stroke:none;fill-rule:nonzero;fill:#ffffff;fill-opacity:1;" d="M 63.859375 95.683594 L 47.992188 93.136719 L 55.769531 44.675781 L 71.632812 47.222656 Z M 63.859375 95.683594 "/></g></g></g><g clip-rule="nonzero" clip-path="url(#b22f7e7e54)"><g clip-rule="nonzero" clip-path="url(#f4fd75d2bd)"><g clip-rule="nonzero" clip-path="url(#e76876f4a4)"><path style=" stroke:none;fill-rule:nonzero;fill:#ffffff;fill-opacity:1;" d="M 44.960938 57.597656 L 45.492188 53.746094 L 56.765625 55.300781 L 56.234375 59.152344 Z M 44.960938 57.597656 "/></g></g></g><g clip-rule="nonzero" clip-path="url(#72f6060aac)"><g clip-rule="nonzero" clip-path="url(#c07f5b51f1)"><path style=" stroke:none;fill-rule:nonzero;fill:#ffffff;fill-opacity:1;" d="M 45.21875 55.699219 L 48.554688 18.691406 L 62.714844 19.964844 L 59.378906 56.976562 Z M 45.21875 55.699219 "/></g></g><g clip-rule="nonzero" clip-path="url(#764ed79cd8)"><g clip-rule="nonzero" clip-path="url(#69d7a9c3b4)"><g clip-rule="nonzero" clip-path="url(#be8bd2bd4c)"><path style=" stroke:none;fill-rule:nonzero;fill:#ffffff;fill-opacity:1;" d="M 71.710938 45.492188 L 71.398438 49.359375 L 60.054688 48.4375 L 60.367188 44.574219 Z M 71.710938 45.492188 "/></g></g></g><g clip-rule="nonzero" clip-path="url(#7d7f35b62f)"><g clip-rule="nonzero" clip-path="url(#9beba124bf)"><path style=" stroke:none;fill-rule:nonzero;fill:#ffffff;fill-opacity:1;" d="M 58.984375 45.09375 L 62.097656 18.472656 L 63.789062 18.667969 L 60.675781 45.292969 Z M 58.984375 45.09375 "/></g></g><g clip-rule="nonzero" clip-path="url(#969d41a461)"><path style=" stroke:none;fill-rule:nonzero;fill:#ffffff;fill-opacity:1;" d="M 18.039062 55.152344 C 18.398438 34.519531 35.242188 17.90625 55.984375 17.90625 C 76.707031 17.90625 93.550781 34.519531 93.90625 55.152344 Z M 18.039062 55.152344 "/></g><g clip-rule="nonzero" clip-path="url(#567eaf98ee)"><g clip-rule="nonzero" clip-path="url(#6a552f6b6d)"><g clip-rule="nonzero" clip-path="url(#4ddbc2ba06)"><path style=" stroke:none;fill-rule:nonzero;fill:#ffffff;fill-opacity:1;" d="M 48.652344 21.457031 L 49.195312 17.019531 L 63.792969 18.796875 L 63.253906 23.234375 Z M 48.652344 21.457031 "/></g></g></g></g></svg>